<svg xmlns="http://www.w3.org/2000/svg" version="1.1" xmlns:xlink="http://www.w3.org/1999/xlink" xmlns:svgjs="http://svgjs.dev/svgjs" width="2000" height="762" viewBox="0 0 2000 762"><g transform="matrix(1,0,0,1,-1.2121212121212466,-0.5909409589777965)"><svg viewBox="0 0 396 151" data-background-color="#282634" preserveAspectRatio="xMidYMid meet" height="762" width="2000" xmlns="http://www.w3.org/2000/svg" xmlns:xlink="http://www.w3.org/1999/xlink"><g id="tight-bounds" transform="matrix(1,0,0,1,0.2400000000000091,0.11710247349822112)"><svg viewBox="0 0 395.52 150.76579505300356" height="150.76579505300356" width="395.52"><g><svg viewBox="0 0 395.52 150.76579505300356" height="150.76579505300356" width="395.52"><g><svg viewBox="0 0 395.52 150.76579505300356" height="150.76579505300356" width="395.52"><g id="textblocktransform"><svg viewBox="0 0 395.52 150.76579505300356" height="150.76579505300356" width="395.52" id="textblock"><g><svg viewBox="0 0 395.52 150.76579505300356" height="150.76579505300356" width="395.52"><g transform="matrix(1,0,0,1,0,0)"><svg width="395.52" viewBox="2 -36.3 113.19 43.15" height="150.76579505300356" data-palette-color="#ff4057"><g class="wordmark-text-0" data-fill-palette-color="primary" id="text-0"><path d="M24.15-0.25L24.15-0.25Q22.9-0.25 21.1-0.98 19.3-1.7 17.5-2.65 15.7-3.6 14.35-4.3L14.35-4.3Q10.3-6.45 7.55-8.03 4.8-9.6 3.4-11.28 2-12.95 2-15.3L2-15.3Q2-17.7 3.4-19.35 4.8-21 7.55-22.58 10.3-24.15 14.35-26.3L14.35-26.3Q15.7-27 17.5-27.95 19.3-28.9 21.1-29.63 22.9-30.35 24.15-30.35L24.15-30.35Q26.15-30.35 27.33-29.08 28.5-27.8 28.5-26.2L28.5-26.2Q28.5-25 27.78-23.83 27.05-22.65 25.45-21.85L25.45-21.85Q22.2-20.2 18.93-18.57 15.65-16.95 12.4-15.3L12.4-15.3Q15.5-13.75 18.85-12.08 22.2-10.4 25.45-8.75L25.45-8.75Q27.05-7.95 27.75-6.8 28.45-5.65 28.45-4.5L28.45-4.5Q28.45-2.85 27.25-1.55 26.05-0.25 24.15-0.25ZM38.65-0.05L38.65-0.05Q35.75-0.05 34.25-2.02 32.75-4 32.25-7.85 31.75-11.7 31.75-17.4L31.75-17.4Q31.75-23.1 32.25-27 32.75-30.9 34.25-32.88 35.75-34.85 38.65-34.85L38.65-34.85Q41.2-34.85 42.57-33.27 43.95-31.7 44.52-28.7 45.1-25.7 45.2-21.5L45.2-21.5Q46.05-21.5 46.95-21.5 47.85-21.5 48.75-21.5L48.75-21.5Q49.8-21.5 50.82-21.5 51.85-21.5 52.8-21.45L52.8-21.45Q52.9-25.7 53.45-28.7 54-31.7 55.37-33.3 56.75-34.9 59.3-34.9L59.3-34.9Q62.2-34.9 63.7-32.9 65.2-30.9 65.72-27 66.25-23.1 66.25-17.4L66.25-17.4Q66.25-11.7 65.72-7.85 65.2-4 63.7-2.05 62.2-0.1 59.3-0.1L59.3-0.1Q55.7-0.1 54.4-3.2 53.1-6.3 52.85-12L52.85-12Q51.7-11.95 50.4-11.95 49.1-11.95 47.75-11.95L47.75-11.95Q47.1-11.95 46.45-11.95 45.8-11.95 45.15-11.95L45.15-11.95Q44.9-6.3 43.57-3.18 42.25-0.05 38.65-0.05ZM72.45-15.9L72.45-15.9Q73.5-19.8 74.47-23.45 75.45-27.1 76.55-30 77.65-32.9 78.95-34.6 80.25-36.3 81.9-36.3L81.9-36.3Q83.84-36.3 84.65-34.9 85.45-33.5 85.45-31.85L85.45-31.85Q85.45-30.6 85.07-28.45 84.7-26.3 83.84-22.7 83-19.1 81.5-13.5L81.5-13.5Q79.55-6.15 78.2-1.68 76.84 2.8 75.55 4.83 74.25 6.85 72.45 6.85L72.45 6.85Q71.59 6.85 70.75 6.48 69.9 6.1 69.32 5.13 68.75 4.15 68.75 2.3L68.75 2.3Q68.75-0.3 69.72-4.75 70.7-9.2 72.45-15.9ZM93.04-0.25L93.04-0.25Q91.14-0.25 89.94-1.55 88.74-2.85 88.74-4.5L88.74-4.5Q88.74-5.65 89.47-6.8 90.19-7.95 91.74-8.75L91.74-8.75Q94.99-10.4 98.34-12.08 101.69-13.75 104.79-15.3L104.79-15.3Q101.54-16.95 98.27-18.57 94.99-20.2 91.74-21.85L91.74-21.85Q90.19-22.65 89.44-23.83 88.69-25 88.69-26.2L88.69-26.2Q88.69-27.8 89.87-29.08 91.04-30.35 93.04-30.35L93.04-30.35Q94.34-30.35 96.12-29.63 97.89-28.9 99.72-27.95 101.54-27 102.84-26.3L102.84-26.3Q106.89-24.15 109.64-22.58 112.39-21 113.79-19.35 115.19-17.7 115.19-15.3L115.19-15.3Q115.19-12.95 113.79-11.28 112.39-9.6 109.64-8.03 106.89-6.45 102.84-4.3L102.84-4.3Q101.54-3.6 99.72-2.65 97.89-1.7 96.12-0.98 94.34-0.25 93.04-0.25Z" fill="#ff4057" data-fill-palette-color="primary"></path></g></svg></g></svg></g></svg></g></svg></g></svg></g><defs></defs></svg><rect width="395.52" height="150.76579505300356" fill="none" stroke="none" visibility="hidden"></rect></g></svg></g></svg>